<svg xmlns="http://www.w3.org/2000/svg" width="512" height="512" viewBox="0 0 512 512" role="img" aria-label="Polaris">
  <rect width="512" height="512" rx="112" fill="#0b1120"/>
  <path fill="#47bfff" d="M330.4 62.5c7.7-9.8 23.4-4.3 23.4 8.1v119.5c0 14.4 11.7 26.1 26.1 26.1h72.2c10.9 0 17 12.5 10.2 21L183.2 449.5c-7.7 9.8-23.4 4.3-23.4-8.1V321.9c0-14.4-11.7-26.1-26.1-26.1H59.9c-10.6 0-16.8-12-10.6-20.7L197.1 68c2.5-3.4 6.4-5.5 10.6-5.5h122.7Z"/>
  <path fill="#863bff" d="M281.8 62.5c7.7-9.8 23.4-4.3 23.4 8.1v119.5c0 14.4 11.7 26.1 26.1 26.1h131.6c10.9 0 17 12.5 10.2 21L194.1 449.5c-7.7 9.8-23.4 4.3-23.4-8.1V321.9c0-14.4-11.7-26.1-26.1-26.1H64.1c-10.6 0-16.8-12-10.6-20.7L201.3 68c2.5-3.4 6.4-5.5 10.6-5.5h69.9Z"/>
  <path fill="#ede6ff" d="M278.6 94.2 132.1 268.9h42.5c17.1 0 31 13.9 31 31v64.2l151.5-115.3h-46.8c-17.1 0-31-13.9-31-31V94.2h-.7Z" opacity=".92"/>
</svg>
